<svg width="1610" height="754" viewBox="0 0 1610 754" fill="none" xmlns="http://www.w3.org/2000/svg">
<path d="M487.523 176.001V245.565H465.084L401.133 569.255H295.665L247.421 360.005L196.932 569.255H90.9047L31.4398 245.565H9V176.001H169.443V245.565H140.832L170.565 446.398L233.957 176.001H305.202L362.985 446.398L398.327 245.565H368.034V176.001H487.523Z" fill="white"/>
<path d="M597.201 294.368C635.723 294.368 665.082 306.149 685.276 329.711C705.846 352.898 716.131 388.241 716.131 435.738C716.131 529.237 676.488 575.987 597.201 575.987C517.914 575.987 478.271 529.237 478.271 435.738C478.271 388.614 488.556 353.271 509.126 329.711C529.695 306.149 559.054 294.368 597.201 294.368ZM574.762 492.96C578.128 504.18 585.607 509.79 597.201 509.79C608.795 509.79 616.088 504.18 619.08 492.96C622.446 481.366 624.129 461.919 624.129 434.618C624.129 406.567 622.259 387.306 618.519 376.835C615.153 365.989 608.047 360.566 597.201 360.566C586.356 360.566 579.063 365.989 575.323 376.835C571.583 387.681 569.713 406.942 569.713 434.618C569.713 461.92 571.396 481.368 574.762 492.96Z" fill="white"/>
<path d="M929.036 297.176V377.398C900.239 376.276 880.418 380.951 869.571 391.423C858.725 401.895 853.302 421.903 853.302 451.447V506.985H883.035V569.255H739.981V506.985H763.542V363.372H739.981V301.103H848.253L847.692 344.298C855.546 329.712 866.018 318.305 879.107 310.077C892.197 301.475 906.783 297.174 922.865 297.174L929.036 297.176Z" fill="white"/>
<path d="M1200.28 506.986V569.255H1086.95V538.962C1083.21 548.685 1075.55 557.1 1063.95 564.206C1052.73 571.312 1040.39 574.865 1026.93 574.865C1014.21 574.865 1003.18 572.808 993.83 568.694C984.48 564.58 975.878 557.474 968.024 547.376C960.544 536.904 954.747 521.944 950.633 502.496C946.519 483.048 944.462 459.112 944.462 430.687C944.462 379.451 951.755 344.109 966.341 324.66C981.301 305.212 1001.5 295.489 1026.93 295.489C1054.23 295.489 1074.24 307.643 1086.95 331.953V238.269H1060.03V176H1177.27V506.984L1200.28 506.986ZM1062.83 507.547C1074.43 507.547 1081.72 502.311 1084.71 491.839C1088.08 480.993 1089.76 462.294 1089.76 435.741C1089.76 408.439 1087.89 389.74 1084.15 379.644C1080.79 369.172 1073.87 363.936 1063.39 363.936C1052.55 363.936 1045.26 369.172 1041.52 379.644C1038.15 389.741 1036.47 408.441 1036.47 435.741C1036.47 445.091 1036.47 452.384 1036.47 457.62C1036.84 462.482 1037.22 468.278 1037.59 475.011C1037.96 481.369 1038.71 486.23 1039.83 489.596C1040.96 492.588 1042.45 495.767 1044.32 499.133C1046.19 502.125 1048.62 504.369 1051.61 505.865C1054.98 506.987 1058.72 507.547 1062.83 507.547Z" fill="white"/>
<path d="M1361.56 506.986V569.255H1224.68V506.986H1247.68V238.271H1222.43V176.001H1337.99V506.986H1361.56Z" fill="white"/>
<path d="M1410.08 328.59C1432.52 305.777 1461.13 294.37 1495.91 294.37C1530.7 294.37 1558.37 305.777 1578.94 328.59C1599.51 351.404 1609.79 387.495 1609.79 436.862C1609.79 442.846 1609.42 450.326 1608.67 459.302H1468.42C1468.42 480.246 1470.85 495.018 1475.72 503.619C1480.58 511.847 1488.62 515.961 1499.84 515.961C1516.29 515.961 1526.95 506.05 1531.82 486.228H1608.11C1593.9 546.066 1557.62 575.985 1499.28 575.985C1459.26 575.985 1428.78 565.513 1407.84 544.57C1387.27 523.626 1376.98 487.161 1376.98 435.175C1376.98 386.557 1388.01 351.028 1410.08 328.589L1410.08 328.59ZM1467.87 418.347H1523.41V411.054C1523.41 392.729 1521.54 379.077 1517.8 370.101C1514.06 360.751 1506.76 356.076 1495.92 356.076C1491.43 356.076 1487.5 356.824 1484.14 358.32C1481.15 359.442 1478.53 361.686 1476.28 365.052C1474.41 368.418 1472.92 371.597 1471.79 374.589C1470.67 377.207 1469.74 381.694 1468.99 388.052C1468.62 394.036 1468.24 398.711 1467.87 402.077C1467.87 405.069 1467.87 410.493 1467.87 418.347Z" fill="white"/>
<path d="M59.3324 0.363784L75.2727 0.363781L75.2728 94.4632C75.2728 102.862 73.7301 109.996 70.6449 115.867C67.5597 121.737 63.2104 126.194 57.597 129.236C51.9836 132.279 45.3632 133.8 37.7358 133.8C30.537 133.8 24.1308 132.493 18.5174 129.879C12.904 127.222 8.49044 123.452 5.27666 118.567C2.06288 113.682 0.455995 107.875 0.455994 101.148H16.1392C16.1392 104.876 17.0605 108.132 18.9031 110.918C20.7885 113.66 23.3595 115.803 26.6162 117.345C29.8728 118.888 33.5793 119.659 37.7358 119.659C42.3208 119.659 46.2202 118.695 49.434 116.767C52.6478 114.839 55.0902 112.01 56.7614 108.282C58.4754 104.512 59.3324 99.9052 59.3324 94.4632L59.3324 0.363784Z" fill="white"/>
<path d="M167.38 91.6351V33.2729L182.549 33.2729L182.549 132H167.38V115.288H166.351C164.037 120.302 160.438 124.566 155.553 128.079C150.668 131.55 144.498 133.286 137.042 133.286C130.871 133.286 125.386 131.936 120.587 129.236C115.788 126.494 112.017 122.38 109.275 116.895C106.532 111.368 105.161 104.404 105.161 96.0058L105.161 33.2729L120.33 33.2729L120.33 94.9774C120.33 102.176 122.344 107.918 126.372 112.203C130.443 116.488 135.628 118.631 141.927 118.631C145.697 118.631 149.532 117.667 153.432 115.738C157.374 113.81 160.674 110.853 163.33 106.868C166.03 102.883 167.38 97.8055 167.38 91.6351Z" fill="white"/>
<path d="M280.264 55.3836L266.637 59.2402C265.78 56.9691 264.516 54.7623 262.845 52.6198C261.217 50.4344 258.988 48.6347 256.16 47.2206C253.332 45.8066 249.711 45.0995 245.298 45.0995C239.256 45.0995 234.221 46.4922 230.193 49.2775C226.208 52.0199 224.215 55.5122 224.215 59.7544C224.215 63.5252 225.587 66.5033 228.329 68.6887C231.071 70.8741 235.356 72.6952 241.184 74.1521L255.839 77.7515C264.666 79.8941 271.244 83.1721 275.572 87.5857C279.899 91.9564 282.063 97.5913 282.063 104.49C282.063 110.146 280.435 115.203 277.178 119.659C273.965 124.116 269.465 127.629 263.681 130.2C257.896 132.771 251.168 134.057 243.498 134.057C233.428 134.057 225.094 131.872 218.495 127.501C211.896 123.13 207.718 116.745 205.961 108.347L220.359 104.747C221.73 110.061 224.322 114.046 228.136 116.703C231.993 119.359 237.028 120.688 243.241 120.688C250.311 120.688 255.925 119.188 260.081 116.188C264.28 113.146 266.38 109.504 266.38 105.261C266.38 101.833 265.18 98.9625 262.781 96.6486C260.381 94.2918 256.696 92.5349 251.725 91.378L235.271 87.5214C226.229 85.3789 219.587 82.058 215.345 77.5587C211.146 73.0166 209.046 67.3389 209.046 60.5257C209.046 54.9551 210.61 50.0273 213.738 45.7423C216.909 41.4573 221.216 38.0935 226.658 35.651C232.143 33.2086 238.356 31.9873 245.298 31.9873C255.068 31.9873 262.738 34.1298 268.308 38.4149C273.922 42.6999 277.907 48.3562 280.264 55.3836Z" fill="white"/>
<path d="M347.833 33.2728V46.1279L296.67 46.1279V33.2728L347.833 33.2728ZM311.582 9.61942L326.751 9.61942L326.751 103.719C326.751 108.004 327.372 111.218 328.615 113.36C329.9 115.46 331.529 116.874 333.5 117.602C335.514 118.288 337.635 118.631 339.863 118.631C341.534 118.631 342.906 118.545 343.977 118.374C345.048 118.159 345.905 117.988 346.548 117.859L349.633 131.486C348.605 131.872 347.169 132.257 345.327 132.643C343.484 133.071 341.149 133.286 338.321 133.286C334.035 133.286 329.836 132.364 325.723 130.522C321.652 128.679 318.267 125.873 315.567 122.102C312.91 118.331 311.582 113.574 311.582 107.832V9.61942Z" fill="white"/>
<path d="M429.013 132H412.302L460.637 0.363714L477.091 0.363711L525.427 132H508.715L469.378 21.189H468.35L429.013 132ZM435.184 80.5796L502.545 80.5796V94.7202L435.184 94.7203V80.5796Z" fill="white"/>
<path d="M559.043 72.6094L559.043 132H543.874V33.2728L558.529 33.2728V48.6989H559.814C562.128 43.6854 565.642 39.6575 570.355 36.6151C575.069 33.5299 581.154 31.9873 588.61 31.9873C595.294 31.9873 601.143 33.3585 606.157 36.1009C611.17 38.8005 615.07 42.9141 617.855 48.4418C620.64 53.9267 622.033 60.8684 622.033 69.2671V132L606.864 132V70.2955C606.864 62.5396 604.85 56.4977 600.822 52.1698C596.794 47.7991 591.266 45.6137 584.239 45.6137C579.397 45.6137 575.069 46.6635 571.255 48.7632C567.484 50.8629 564.506 53.9267 562.321 57.9546C560.135 61.9825 559.043 66.8675 559.043 72.6094Z" fill="white"/>
<path d="M689.86 134.057C680.947 134.057 673.127 131.936 666.399 127.694C659.714 123.451 654.487 117.517 650.716 109.889C646.988 102.262 645.124 93.349 645.124 83.1506C645.124 72.8665 646.988 63.8894 650.716 56.2192C654.487 48.5489 659.714 42.5927 666.399 38.3505C673.127 34.1084 680.947 31.9873 689.86 31.9873C698.773 31.9873 706.571 34.1083 713.256 38.3505C719.983 42.5927 725.211 48.5489 728.939 56.2191C732.71 63.8894 734.595 72.8665 734.595 83.1506C734.595 93.349 732.71 102.262 728.939 109.889C725.211 117.517 719.983 123.451 713.256 127.694C706.571 131.936 698.773 134.057 689.86 134.057ZM689.86 120.43C696.63 120.43 702.201 118.695 706.571 115.224C710.942 111.753 714.177 107.19 716.277 101.533C718.377 95.8772 719.426 89.7496 719.426 83.1506C719.426 76.5516 718.377 70.4026 716.277 64.7035C714.177 59.0044 710.942 54.398 706.571 50.8843C702.201 47.3705 696.63 45.6137 689.86 45.6137C683.089 45.6137 677.519 47.3705 673.148 50.8843C668.777 54.398 665.542 59.0044 663.442 64.7035C661.343 70.4026 660.293 76.5517 660.293 83.1506C660.293 89.7496 661.343 95.8772 663.442 101.533C665.542 107.19 668.777 111.753 673.148 115.224C677.519 118.695 683.089 120.43 689.86 120.43Z" fill="white"/>
<path d="M800.687 33.2727V46.1279L749.523 46.1279V33.2728L800.687 33.2727ZM764.435 9.61934L779.604 9.61934V103.719C779.604 108.004 780.226 111.218 781.468 113.36C782.754 115.46 784.382 116.874 786.353 117.602C788.367 118.288 790.488 118.631 792.717 118.631C794.388 118.631 795.759 118.545 796.83 118.374C797.902 118.159 798.759 117.988 799.401 117.859L802.487 131.486C801.458 131.871 800.023 132.257 798.18 132.643C796.337 133.071 794.002 133.286 791.174 133.286C786.889 133.286 782.69 132.364 778.576 130.522C774.505 128.679 771.12 125.872 768.42 122.102C765.764 118.331 764.435 113.574 764.435 107.832L764.435 9.61934Z" fill="white"/>
<path d="M840.795 72.6094L840.795 132H825.626V0.36365L840.795 0.363647V48.6989H842.08C844.394 43.5997 847.865 39.5503 852.493 36.5508C857.164 33.5084 863.377 31.9872 871.133 31.9872C877.86 31.9872 883.752 33.337 888.809 36.0366C893.865 38.6933 897.786 42.7855 900.571 48.3132C903.399 53.7981 904.813 60.7827 904.813 69.2671V132H889.644V70.2955C889.644 62.4538 887.609 56.3905 883.538 52.1055C879.51 47.7776 873.918 45.6136 866.762 45.6136C861.791 45.6136 857.335 46.6635 853.393 48.7631C849.493 50.8628 846.408 53.9266 844.137 57.9546C841.909 61.9825 840.795 66.8674 840.795 72.6094Z" fill="white"/>
<path d="M973.958 134.057C964.445 134.057 956.239 131.957 949.34 127.758C942.484 123.516 937.192 117.602 933.464 110.018C929.779 102.39 927.936 93.5204 927.936 83.4077C927.936 73.295 929.779 64.3821 933.464 56.669C937.192 48.9131 942.377 42.8712 949.019 38.5433C955.703 34.1726 963.502 31.9872 972.415 31.9872C977.557 31.9872 982.635 32.8442 987.648 34.5582C992.662 36.2722 997.225 39.0575 1001.34 42.9141C1005.45 46.7277 1008.73 51.7841 1011.17 58.0831C1013.62 64.3821 1014.84 72.138 1014.84 81.3508V87.7784L938.735 87.7784V74.6662L999.411 74.6662C999.411 69.0956 998.297 64.125 996.068 59.7542C993.883 55.3835 990.755 51.9341 986.684 49.4059C982.656 46.8777 977.9 45.6136 972.415 45.6136C966.373 45.6136 961.145 47.1134 956.732 50.1129C952.361 53.0696 948.997 56.9261 946.641 61.6825C944.284 66.4389 943.105 71.5381 943.105 76.9801V85.7216C943.105 93.1776 944.391 99.498 946.962 104.683C949.576 109.825 953.197 113.746 957.825 116.445C962.452 119.102 967.83 120.43 973.958 120.43C977.943 120.43 981.542 119.873 984.756 118.759C988.013 117.602 990.819 115.888 993.176 113.617C995.533 111.303 997.354 108.432 998.64 105.004L1013.29 109.118C1011.75 114.089 1009.16 118.459 1005.52 122.23C1001.87 125.958 997.375 128.872 992.019 130.972C986.663 133.028 980.642 134.057 973.958 134.057Z" fill="white"/>
<path d="M1037.91 132L1037.91 33.2727L1052.57 33.2727V48.1846H1053.6C1055.39 43.2997 1058.65 39.336 1063.36 36.2936C1068.08 33.2513 1073.39 31.7301 1079.31 31.7301C1080.42 31.7301 1081.81 31.7515 1083.48 31.7944C1085.15 31.8372 1086.42 31.9015 1087.28 31.9872V47.4133C1086.76 47.2848 1085.58 47.0919 1083.74 46.8348C1081.94 46.5349 1080.03 46.3849 1078.02 46.3849C1073.22 46.3849 1068.94 47.3919 1065.16 49.4059C1061.44 51.377 1058.48 54.1194 1056.29 57.6331C1054.15 61.104 1053.08 65.0677 1053.08 69.5241V132H1037.91Z" fill="white"/>
<path d="M1213.87 660.5H1197.93C1196.98 655.915 1195.33 651.887 1192.98 648.416C1190.66 644.945 1187.83 642.031 1184.49 639.675C1181.19 637.275 1177.53 635.475 1173.5 634.276C1169.47 633.076 1165.27 632.476 1160.9 632.476C1152.93 632.476 1145.71 634.49 1139.24 638.518C1132.81 642.546 1127.69 648.48 1123.88 656.322C1120.11 664.164 1118.22 673.784 1118.22 685.182C1118.22 696.58 1120.11 706.2 1123.88 714.042C1127.69 721.883 1132.81 727.818 1139.24 731.846C1145.71 735.874 1152.93 737.888 1160.9 737.888C1165.27 737.888 1169.47 737.288 1173.5 736.088C1177.53 734.888 1181.19 733.11 1184.49 730.753C1187.83 728.354 1190.66 725.418 1192.98 721.947C1195.33 718.434 1196.98 714.406 1197.93 709.864H1213.87C1212.67 716.591 1210.48 722.612 1207.31 727.925C1204.14 733.238 1200.2 737.759 1195.48 741.487C1190.77 745.172 1185.48 747.979 1179.61 749.907C1173.78 751.836 1167.55 752.8 1160.9 752.8C1149.68 752.8 1139.69 750.057 1130.95 744.572C1122.21 739.088 1115.33 731.289 1110.32 721.176C1105.31 711.063 1102.8 699.065 1102.8 685.182C1102.8 671.298 1105.31 659.3 1110.32 649.188C1115.33 639.075 1122.21 631.276 1130.95 625.791C1139.69 620.306 1149.68 617.564 1160.9 617.564C1167.55 617.564 1173.78 618.528 1179.61 620.456C1185.48 622.385 1190.77 625.213 1195.48 628.941C1200.2 632.626 1204.14 637.125 1207.31 642.439C1210.48 647.709 1212.67 653.73 1213.87 660.5Z" fill="white"/>
<path d="M1252.74 619.364V751H1237.57V619.364H1252.74Z" fill="white"/>
<path d="M1320.63 753.057C1311.72 753.057 1303.9 750.936 1297.17 746.694C1290.48 742.451 1285.26 736.517 1281.48 728.889C1277.76 721.262 1275.89 712.349 1275.89 702.151C1275.89 691.866 1277.76 682.889 1281.48 675.219C1285.26 667.549 1290.48 661.593 1297.17 657.35C1303.9 653.108 1311.72 650.987 1320.63 650.987C1329.54 650.987 1337.34 653.108 1344.02 657.35C1350.75 661.593 1355.98 667.549 1359.71 675.219C1363.48 682.889 1365.36 691.866 1365.36 702.151C1365.36 712.349 1363.48 721.262 1359.71 728.889C1355.98 736.517 1350.75 742.451 1344.02 746.694C1337.34 750.936 1329.54 753.057 1320.63 753.057ZM1320.63 739.43C1327.4 739.43 1332.97 737.695 1337.34 734.224C1341.71 730.753 1344.95 726.19 1347.05 720.533C1349.15 714.877 1350.2 708.75 1350.2 702.151C1350.2 695.552 1349.15 689.403 1347.05 683.703C1344.95 678.004 1341.71 673.398 1337.34 669.884C1332.97 666.37 1327.4 664.614 1320.63 664.614C1313.86 664.614 1308.29 666.37 1303.92 669.884C1299.55 673.398 1296.31 678.004 1294.21 683.703C1292.11 689.403 1291.06 695.552 1291.06 702.151C1291.06 708.75 1292.11 714.877 1294.21 720.533C1296.31 726.19 1299.55 730.753 1303.92 734.224C1308.29 737.695 1313.86 739.43 1320.63 739.43Z" fill="white"/>
<path d="M1403.69 691.609V751H1388.52V652.273H1403.17V667.699H1404.46C1406.77 662.685 1410.29 658.657 1415 655.615C1419.71 652.53 1425.8 650.987 1433.26 650.987C1439.94 650.987 1445.79 652.358 1450.8 655.101C1455.82 657.8 1459.72 661.914 1462.5 667.442C1465.29 672.927 1466.68 679.868 1466.68 688.267V751H1451.51V689.295C1451.51 681.539 1449.5 675.498 1445.47 671.17C1441.44 666.799 1435.91 664.614 1428.88 664.614C1424.04 664.614 1419.71 665.663 1415.9 667.763C1412.13 669.863 1409.15 672.927 1406.97 676.955C1404.78 680.982 1403.69 685.867 1403.69 691.609Z" fill="white"/>
<path d="M1535.79 753.057C1526.28 753.057 1518.07 750.957 1511.17 746.758C1504.32 742.516 1499.03 736.602 1495.3 729.018C1491.61 721.39 1489.77 712.52 1489.77 702.408C1489.77 692.295 1491.61 683.382 1495.3 675.669C1499.03 667.913 1504.21 661.871 1510.85 657.543C1517.54 653.173 1525.34 650.987 1534.25 650.987C1539.39 650.987 1544.47 651.844 1549.48 653.558C1554.49 655.272 1559.06 658.058 1563.17 661.914C1567.29 665.728 1570.56 670.784 1573.01 677.083C1575.45 683.382 1576.67 691.138 1576.67 700.351V706.778H1500.57V693.666H1561.24C1561.24 688.096 1560.13 683.125 1557.9 678.754C1555.72 674.383 1552.59 670.934 1548.52 668.406C1544.49 665.878 1539.73 664.614 1534.25 664.614C1528.21 664.614 1522.98 666.113 1518.56 669.113C1514.19 672.07 1510.83 675.926 1508.47 680.682C1506.12 685.439 1504.94 690.538 1504.94 695.98V704.722C1504.94 712.178 1506.22 718.498 1508.79 723.683C1511.41 728.825 1515.03 732.746 1519.66 735.445C1524.29 738.102 1529.66 739.43 1535.79 739.43C1539.78 739.43 1543.38 738.873 1546.59 737.759C1549.85 736.602 1552.65 734.888 1555.01 732.617C1557.37 730.303 1559.19 727.432 1560.47 724.004L1575.13 728.118C1573.58 733.089 1570.99 737.459 1567.35 741.23C1563.71 744.958 1559.21 747.872 1553.85 749.972C1548.5 752.028 1542.48 753.057 1535.79 753.057Z" fill="white"/>
</svg>
